# Blender 4.0.2
# www.blender.org
o Cylinder.001
v 0.000000 -0.547747 -0.893689
v 0.000000 -0.547747 -0.985149
v 0.000000 -0.457946 -0.985149
v 0.000000 -0.457946 -0.893689
v 0.192193 -0.547747 -0.966219
v 0.174350 -0.547747 -0.876517
v 0.192193 -0.457946 -0.966219
v 0.174350 -0.457946 -0.876517
v 0.377000 -0.547747 -0.910159
v 0.342000 -0.547747 -0.825661
v 0.342000 -0.457946 -0.825661
v 0.377000 -0.457946 -0.910159
v 0.496507 -0.547747 -0.743075
v 0.547319 -0.547747 -0.819121
v 0.496507 -0.457946 -0.743075
v 0.547319 -0.457946 -0.819121
v 0.631933 -0.547747 -0.631933
v 0.696605 -0.547747 -0.696605
v 0.631933 -0.457946 -0.631933
v 0.696605 -0.457946 -0.696605
v 0.819121 -0.547747 -0.547319
v 0.743075 -0.547747 -0.496507
v 0.819121 -0.457946 -0.547319
v 0.743075 -0.457946 -0.496507
v 0.825661 -0.547747 -0.342000
v 0.910159 -0.547747 -0.377000
v 0.825661 -0.457946 -0.342000
v 0.910159 -0.457946 -0.377000
v 0.876517 -0.547747 -0.174350
v 0.966219 -0.547747 -0.192193
v 0.876517 -0.457946 -0.174350
v 0.966219 -0.457946 -0.192193
v 0.893689 -0.547747 0.000000
v 0.985149 -0.547747 0.000000
v 0.893689 -0.457946 0.000000
v 0.985149 -0.457946 0.000000
v 0.966219 -0.547747 0.192193
v 0.876517 -0.547747 0.174350
v 0.966219 -0.457946 0.192193
v 0.876517 -0.457946 0.174350
v 0.910159 -0.547747 0.377000
v 0.825661 -0.547747 0.342000
v 0.825661 -0.457946 0.342000
v 0.910159 -0.457946 0.377000
v 0.743075 -0.547747 0.496507
v 0.819121 -0.547747 0.547319
v 0.743075 -0.457946 0.496507
v 0.819121 -0.457946 0.547319
v 0.696605 -0.547747 0.696605
v 0.631933 -0.547747 0.631933
v 0.631933 -0.457946 0.631933
v 0.696605 -0.457946 0.696605
v 0.496507 -0.547747 0.743075
v 0.547319 -0.547747 0.819121
v 0.547319 -0.457946 0.819121
v 0.496507 -0.457946 0.743075
v 0.342000 -0.547747 0.825661
v 0.377000 -0.547747 0.910159
v 0.377000 -0.457946 0.910159
v 0.342000 -0.457946 0.825661
v 0.174350 -0.547747 0.876517
v 0.192193 -0.547747 0.966219
v 0.174350 -0.457946 0.876517
v 0.192193 -0.457946 0.966219
v 0.000000 -0.547747 0.985149
v 0.000000 -0.547747 0.893689
v 0.000000 -0.457946 0.985149
v 0.000000 -0.457946 0.893689
v -0.192193 -0.547747 0.966219
v -0.174350 -0.547747 0.876517
v -0.174350 -0.457946 0.876517
v -0.192193 -0.457946 0.966219
v -0.377000 -0.547747 0.910159
v -0.342000 -0.547747 0.825661
v -0.342000 -0.457946 0.825661
v -0.377000 -0.457946 0.910159
v -0.496507 -0.547747 0.743075
v -0.547319 -0.547747 0.819121
v -0.496507 -0.457946 0.743075
v -0.547319 -0.457946 0.819121
v -0.631933 -0.547747 0.631933
v -0.696605 -0.547747 0.696605
v -0.631933 -0.457946 0.631933
v -0.696605 -0.457946 0.696605
v -0.743075 -0.547747 0.496507
v -0.819121 -0.547747 0.547319
v -0.819121 -0.457946 0.547319
v -0.743075 -0.457946 0.496507
v -0.825661 -0.547747 0.342000
v -0.910159 -0.547747 0.377000
v -0.910159 -0.457946 0.377000
v -0.825661 -0.457946 0.342000
v -0.966219 -0.547747 0.192193
v -0.876517 -0.547747 0.174350
v -0.966219 -0.457946 0.192193
v -0.876517 -0.457946 0.174350
v -0.985149 -0.547747 0.000000
v -0.893689 -0.547747 0.000000
v -0.985149 -0.457946 0.000000
v -0.893689 -0.457946 0.000000
v -0.966219 -0.547747 -0.192193
v -0.876517 -0.547747 -0.174350
v -0.876517 -0.457946 -0.174350
v -0.966219 -0.457946 -0.192193
v -0.825661 -0.547747 -0.342000
v -0.910159 -0.547747 -0.377000
v -0.910159 -0.457946 -0.377000
v -0.825661 -0.457946 -0.342000
v -0.743075 -0.547747 -0.496507
v -0.819121 -0.547747 -0.547319
v -0.743075 -0.457946 -0.496507
v -0.819121 -0.457946 -0.547319
v -0.696605 -0.547747 -0.696605
v -0.631933 -0.547747 -0.631933
v -0.696605 -0.457946 -0.696605
v -0.631933 -0.457946 -0.631933
v -0.496507 -0.547747 -0.743075
v -0.547319 -0.547747 -0.819121
v -0.547319 -0.457946 -0.819121
v -0.496507 -0.457946 -0.743075
v -0.342000 -0.547747 -0.825661
v -0.377000 -0.547747 -0.910159
v -0.342000 -0.457946 -0.825661
v -0.377000 -0.457946 -0.910159
v -0.174350 -0.547747 -0.876517
v -0.192193 -0.547747 -0.966219
v -0.192193 -0.457946 -0.966219
v -0.174350 -0.457946 -0.876517
vn 0.0980 -0.0000 -0.9952
vn 0.2903 -0.0000 -0.9569
vn 0.4714 -0.0000 -0.8819
vn 0.6344 -0.0000 -0.7730
vn 0.7730 -0.0000 -0.6344
vn 0.8819 -0.0000 -0.4714
vn 0.9569 -0.0000 -0.2903
vn 0.9952 -0.0000 -0.0980
vn 0.9952 -0.0000 0.0980
vn 0.9569 -0.0000 0.2903
vn 0.8819 -0.0000 0.4714
vn 0.7730 -0.0000 0.6344
vn 0.6344 -0.0000 0.7730
vn 0.4714 -0.0000 0.8819
vn 0.2903 -0.0000 0.9569
vn 0.0980 -0.0000 0.9952
vn -0.0980 -0.0000 0.9952
vn -0.2903 -0.0000 0.9569
vn -0.4714 -0.0000 0.8819
vn -0.6344 -0.0000 0.7730
vn -0.7730 -0.0000 0.6344
vn -0.8819 -0.0000 0.4714
vn -0.9569 -0.0000 0.2903
vn -0.9952 -0.0000 0.0980
vn -0.9952 -0.0000 -0.0980
vn -0.9569 -0.0000 -0.2903
vn -0.8819 -0.0000 -0.4714
vn -0.7730 -0.0000 -0.6344
vn -0.6344 -0.0000 -0.7730
vn -0.4714 -0.0000 -0.8819
vn -0.0000 1.0000 -0.0000
vn -0.2903 -0.0000 -0.9569
vn -0.0980 -0.0000 -0.9952
vn -0.0000 -1.0000 -0.0000
s 0
f 2//1 3//1 7//1 5//1
f 5//2 7//2 12//2 9//2
f 9//3 12//3 16//3 14//3
f 14//4 16//4 20//4 18//4
f 18//5 20//5 23//5 21//5
f 21//6 23//6 28//6 26//6
f 26//7 28//7 32//7 30//7
f 30//8 32//8 36//8 34//8
f 34//9 36//9 39//9 37//9
f 37//10 39//10 44//10 41//10
f 41//11 44//11 48//11 46//11
f 46//12 48//12 52//12 49//12
f 49//13 52//13 55//13 54//13
f 54//14 55//14 59//14 58//14
f 58//15 59//15 64//15 62//15
f 62//16 64//16 67//16 65//16
f 65//17 67//17 72//17 69//17
f 69//18 72//18 76//18 73//18
f 73//19 76//19 80//19 78//19
f 78//20 80//20 84//20 82//20
f 82//21 84//21 87//21 86//21
f 86//22 87//22 91//22 90//22
f 90//23 91//23 95//23 93//23
f 93//24 95//24 99//24 97//24
f 97//25 99//25 104//25 101//25
f 101//26 104//26 107//26 106//26
f 106//27 107//27 112//27 110//27
f 110//28 112//28 115//28 113//28
f 113//29 115//29 119//29 118//29
f 118//30 119//30 124//30 122//30
f 75//31 76//31 72//31 67//31 64//31 59//31 55//31 52//31 48//31 44//31 43//31 47//31 51//31 56//31 60//31 63//31 68//31 71//31
f 43//31 44//31 39//31 36//31 32//31 28//31 23//31 20//31 16//31 12//31 7//31 3//31 127//31 124//31 119//31 115//31 112//31 107//31 104//31 99//31 95//31 91//31 87//31 84//31 80//31 76//31 75//31 79//31 83//31 88//31 92//31 96//31 100//31 103//31 108//31 111//31 116//31 120//31 123//31 128//31 4//31 8//31 11//31 15//31 19//31 24//31 27//31 31//31 35//31 40//31
f 122//32 124//32 127//32 126//32
f 126//33 127//33 3//33 2//33
f 94//34 93//34 97//34 101//34 106//34 110//34 113//34 118//34 122//34 126//34 2//34 5//34 9//34 14//34 18//34 21//34 26//34 30//34 34//34 37//34 41//34 46//34 49//34 54//34 58//34 62//34 61//34 57//34 53//34 50//34 45//34 42//34 38//34 33//34 29//34 25//34 22//34 17//34 13//34 10//34 6//34 1//34 125//34 121//34 117//34 114//34 109//34 105//34 102//34 98//34
f 61//34 62//34 65//34 69//34 73//34 78//34 82//34 86//34 90//34 93//34 94//34 89//34 85//34 81//34 77//34 74//34 70//34 66//34
f 4//17 1//17 6//17 8//17
f 8//18 6//18 10//18 11//18
f 11//19 10//19 13//19 15//19
f 15//20 13//20 17//20 19//20
f 24//21 19//21 17//21 22//21
f 27//22 24//22 22//22 25//22
f 31//23 27//23 25//23 29//23
f 35//24 31//24 29//24 33//24
f 40//25 35//25 33//25 38//25
f 38//26 42//26 43//26 40//26
f 42//27 45//27 47//27 43//27
f 51//28 47//28 45//28 50//28
f 56//29 51//29 50//29 53//29
f 60//30 56//30 53//30 57//30
f 63//32 60//32 57//32 61//32
f 68//33 63//33 61//33 66//33
f 71//1 68//1 66//1 70//1
f 70//2 74//2 75//2 71//2
f 75//3 74//3 77//3 79//3
f 83//4 79//4 77//4 81//4
f 83//5 81//5 85//5 88//5
f 88//6 85//6 89//6 92//6
f 94//7 96//7 92//7 89//7
f 98//8 100//8 96//8 94//8
f 100//9 98//9 102//9 103//9
f 103//10 102//10 105//10 108//10
f 108//11 105//11 109//11 111//11
f 111//12 109//12 114//12 116//12
f 116//13 114//13 117//13 120//13
f 120//14 117//14 121//14 123//14
f 125//15 128//15 123//15 121//15
f 1//16 4//16 128//16 125//16
